<svg width="150" height="25" viewBox="0 0 150 25" fill="none" xmlns="http://www.w3.org/2000/svg">
<path d="M12.1795 0L15.7587 7.25312L23.7629 8.41582L17.9708 14.0612L19.3384 22.0329L12.1795 18.2688L5.02056 22.0329L6.38819 14.0612L0.596107 8.41582L8.60027 7.25312L12.1795 0Z" fill="#FFCC48"/>
<path d="M43.5898 0L47.169 7.25312L55.1731 8.41582L49.381 14.0612L50.7487 22.0329L43.5898 18.2688L36.4308 22.0329L37.7985 14.0612L32.0064 8.41582L40.0105 7.25312L43.5898 0Z" fill="#FFCC48"/>
<path d="M75 0L78.5792 7.25312L86.5834 8.41582L80.7913 14.0612L82.1589 22.0329L75 18.2688L67.8411 22.0329L69.2087 14.0612L63.4166 8.41582L71.4208 7.25312L75 0Z" fill="#FFCC48"/>
<path d="M106.41 0L109.989 7.25312L117.994 8.41582L112.202 14.0612L113.569 22.0329L106.41 18.2688L99.2513 22.0329L100.619 14.0612L94.8269 8.41582L102.831 7.25312L106.41 0Z" fill="#FFCC48"/>
<path d="M137.821 0L141.4 7.25312L149.404 8.41582L143.612 14.0612L144.979 22.0329L137.821 18.2688L130.662 22.0329L132.029 14.0612L126.237 8.41582L134.241 7.25312L137.821 0Z" fill="#BCBCCC"/>
</svg>
